<?xml version="1.0" encoding="utf-8"?>
<?xml-stylesheet type="text/xsl" href="rss1.xsl"?>
<rss version="2.0" xmlns:atom="http://www.w3.org/2005/Atom" xmlns:content="http://purl.org/rss/1.0/modules/content/" xmlns:dc="http://purl.org/dc/elements/1.1/" xmlns:media="http://search.yahoo.com/mrss/">
<channel>
 <title>Getty</title>
 <link>http://www.gettyimg.com/</link>
 <atom:link href="http://www.gettyimg.com/" rel="self" type="application/rss+xml" />

 
                <item>
                <title><![CDATA[【Apple Music】WEB-RiP - Taylor Swift - Fortnight (feat. Post Malone) [Apple HD Music Video]]]></title>
                <link><![CDATA[https://sharemania.us/threads/taylor-swift-fortnight-feat-post-malone-apple-hd-music-video.242646/]]></link>
                <description><![CDATA[<article>
<blockquote class="messageText SelectQuoteContainer ugc baseHtml">
<span style="font-size: 22px"><b>Taylor Swift - Fortnight (feat. Post Malone) [Apple HD Music Video]</b></span><br>
<br>
<img src="https://imgur.com/LoUP2v5.jpg" class="bbCodeImage LbImage" alt="[​IMG]" data-url="https://imgur.com/LoUP2v5.jpg" style=""><br>
<br>
<div class="bbCodeBlock bbCodeCode">
<div class="type">Code:</div>
<pre>General
Format                         : MPEG-4
Codec ID                       : M4V  (isom/iso4/M4V /mp42)
File size                      : 196 MiB
Duration                       : 4 min 9 s
Overall bit rate mode          : Variable
Overall bit rate               : 6 601 kb/s
Movie name                     : Fortnight (feat. Post Malone)
Performer                      : Taylor Swift
Genre                          : Pop
ContentType                    : Music Video
Recorded date                  : UTC 2024-04-19 07:00:00
Encoded date                   : UTC 2024-04-20 01:02:18
Tagged date                    : UTC 2024-04-20 01:02:18
Copyright                      : ℗ 2024 Taylor Swift
Cover                          : Yes
Rating                         : None
GenreID                        : 1614
AppleStoreCountry              : United Kingdom
AlbumTitleID                   : 159260351
AppleStoreCatalogID            : 1742247789

Video
ID                             : 2
Format                         : AVC
Format/Info                    : Advanced Video Codec
Format profile                 : High@L4
Format settings                : CABAC / 4 Ref Frames
Format settings, CABAC         : Yes
Format settings, Reference fra : 4 frames
Codec ID                       : avc1
Codec ID/Info                  : Advanced Video Coding
Duration                       : 4 min 9 s
Bit rate                       : 6 330 kb/s
Maximum bit rate               : 14.1 Mb/s
Width                          : 1 920 pixels
Height                         : 1 080 pixels
Display aspect ratio           : 16:9
Frame rate mode                : Constant
Frame rate                     : 23.976 (24000/1001) FPS
Color space                    : YUV
Chroma subsampling             : 4:2:0
Bit depth                      : 8 bits
Scan type                      : Progressive
Bits/(Pixel*Frame)             : 0.127
Stream size                    : 188 MiB (96%)
Title                          : Core Media Video
Language                       : English
Encoded date                   : UTC 2024-04-19 23:45:46
Tagged date                    : UTC 2024-04-20 01:02:24
Color range                    : Limited
Color primaries                : BT.709
Transfer characteristics       : BT.709
Matrix coefficients            : BT.709
Codec configuration box        : avcC

Audio
ID                             : 1
Format                         : AAC LC
Format/Info                    : Advanced Audio Codec Low Complexity
Codec ID                       : mp4a-40-2
Duration                       : 4 min 9 s
Duration_LastFrame             : -4 ms
Bit rate mode                  : Variable
Bit rate                       : 258 kb/s
Maximum bit rate               : 382 kb/s
Channel(s)                     : 2 channels
Channel layout                 : L R
Sampling rate                  : 48.0 kHz
Frame rate                     : 46.875 FPS (1024 SPF)
Compression mode               : Lossy
Stream size                    : 7.68 MiB (4%)
Title                          : Core Media Audio
Encoded date                   : UTC 2024-04-19 23:45:19
Tagged date                    : UTC 2024-04-20 01:02:24

Text
ID                             : 3
Format                         : EIA-608
Codec ID                       : c608
Duration                       : 4 min 6 s
Bit rate mode                  : Variable
Bit rate                       : 130 b/s
Maximum bit rate               : 896 b/s
Frame rate                     : 0.381 FPS
Stream size                    : 3.91 KiB (0%)
Title                          : Core Media Closed Caption
Language                       : English
Forced                         : No
Encoded date                   : UTC 2024-04-19 23:45:46
Tagged date                    : UTC 2024-04-20 01:02:24
</pre>
</div>
<div class="bbCodeBlock bbCodeVfcHH HiddenContent">
<div class="attribution type">Hidden Content:</div>
<blockquote>You must reply before you can see the hidden data contained here.</blockquote>
</div>
<div class="messageTextEndMarker">&nbsp;</div>
</blockquote>
</article>]]></description>
                <author><![CDATA[Mu$iC @$YLUM]]></author>
                </item>

                
                <item>
                <title><![CDATA[【Bugs!】ILLIT - Lucky Girl Syndrome (Bugs! 4K)]]></title>
                <link><![CDATA[https://sharemania.us/threads/illit-lucky-girl-syndrome-bugs-4k.242647/]]></link>
                <description><![CDATA[<article>
<blockquote class="messageText SelectQuoteContainer ugc baseHtml">
Thanks!
<div class="messageTextEndMarker">&nbsp;</div>
</blockquote>
</article>]]></description>
                <author><![CDATA[Once14]]></author>
                </item>

                </channel></rss>